Gait_medial_04_analogdata.mot
version=1
nRows=49
nColumns=19
inDegrees=yes
endheader
time	1_ground_force_vx	1_ground_force_vy	1_ground_force_vz	1_ground_force_px	1_ground_force_py	1_ground_force_pz	1_ground_torque_x	1_ground_torque_y	1_ground_torque_z	2_ground_force_vx	2_ground_force_vy	2_ground_force_vz	2_ground_force_px	2_ground_force_py	2_ground_force_pz	2_ground_torque_x	2_ground_torque_y	2_ground_torque_z
0.652000	-16.986354	663.285889	46.148820	-0.152739	0.000000	-0.187889	0.058260	-2.274938	-0.158281	0.000000	0.000000	-0.000000	-0.200000	0.000000	0.302000	0.000000	0.000000	-0.000000
0.653000	-15.471897	667.484985	46.856573	-0.152760	0.000000	-0.188790	0.064897	-2.799775	-0.196541	0.000000	0.000000	-0.000000	-0.200000	0.000000	0.302000	0.000000	0.000000	-0.000000
0.654000	-15.917326	666.085266	47.121980	-0.152279	0.000000	-0.189538	0.053560	-2.241295	-0.158560	0.000000	0.000000	-0.000000	-0.200000	0.000000	0.302000	0.000000	0.000000	-0.000000
0.655000	-15.560982	660.136597	48.272081	-0.152681	0.000000	-0.187157	0.050730	-2.152095	-0.157371	0.000000	0.000000	-0.000000	-0.200000	0.000000	0.302000	0.000000	0.000000	-0.000000
0.656000	-15.650068	668.184814	50.218404	-0.153686	0.000000	-0.188106	0.049543	-2.115268	-0.158976	0.000000	0.000000	-0.000000	-0.200000	0.000000	0.302000	0.000000	0.000000	-0.000000
0.657000	-16.897270	668.884644	48.891366	-0.154039	0.000000	-0.187864	0.060289	-2.386557	-0.174443	0.000000	0.000000	-0.000000	-0.200000	0.000000	0.302000	0.000000	0.000000	-0.000000
0.658000	-16.808184	670.284363	49.245241	-0.153892	0.000000	-0.187630	0.052850	-2.107595	-0.154843	0.000000	0.000000	-0.000000	-0.200000	0.000000	0.302000	0.000000	0.000000	-0.000000
0.659000	-16.273668	672.033936	50.306875	-0.154366	0.000000	-0.188464	0.055831	-2.305576	-0.172590	0.000000	0.000000	-0.000000	-0.200000	0.000000	0.302000	0.000000	0.000000	-0.000000
0.660000	-16.095497	668.184814	51.280034	-0.153437	0.000000	-0.186516	0.056193	-2.332803	-0.179032	0.000000	0.000000	-0.000000	-0.200000	0.000000	0.302000	0.000000	0.000000	-0.000000
0.661000	-15.828241	676.233032	52.430135	-0.154450	0.000000	-0.188557	0.048626	-2.077459	-0.161071	0.000000	0.000000	-0.000000	-0.200000	0.000000	0.302000	0.000000	0.000000	-0.000000
0.662000	-15.115554	670.634277	52.607072	-0.154376	0.000000	-0.187144	0.050389	-2.235626	-0.175371	0.000000	0.000000	-0.000000	-0.200000	0.000000	0.302000	0.000000	0.000000	-0.000000
0.663000	-13.690181	669.234558	54.376459	-0.154256	0.000000	-0.186706	0.048262	-2.359276	-0.191695	0.000000	0.000000	-0.000000	-0.200000	0.000000	0.302000	0.000000	0.000000	-0.000000
0.664000	-15.650069	671.684021	54.553396	-0.154493	0.000000	-0.186567	0.052034	-2.233258	-0.181383	0.000000	0.000000	-0.000000	-0.200000	0.000000	0.302000	0.000000	0.000000	-0.000000
0.665000	-16.451842	671.334106	54.995740	-0.154882	0.000000	-0.186156	0.058774	-2.398326	-0.196471	0.000000	0.000000	-0.000000	-0.200000	0.000000	0.302000	0.000000	0.000000	-0.000000
0.666000	-15.917327	673.783569	55.791963	-0.154912	0.000000	-0.186703	0.061021	-2.583042	-0.213886	0.000000	0.000000	-0.000000	-0.200000	0.000000	0.302000	0.000000	0.000000	-0.000000
0.667000	-15.026469	675.883118	57.119005	-0.154385	0.000000	-0.187125	0.059474	-2.675103	-0.226073	0.000000	0.000000	-0.000000	-0.200000	0.000000	0.302000	0.000000	0.000000	-0.000000
0.668000	-15.917327	672.383850	56.942064	-0.155314	0.000000	-0.187017	0.058371	-2.465732	-0.208815	0.000000	0.000000	-0.000000	-0.200000	0.000000	0.302000	0.000000	0.000000	-0.000000
0.669000	-15.382813	676.582947	58.092165	-0.155154	0.000000	-0.186364	0.056251	-2.474074	-0.212427	0.000000	0.000000	-0.000000	-0.200000	0.000000	0.302000	0.000000	0.000000	-0.000000
0.670000	-15.650069	679.032410	55.880434	-0.155372	0.000000	-0.186703	0.059010	-2.560373	-0.210704	0.000000	0.000000	-0.000000	-0.200000	0.000000	0.302000	0.000000	0.000000	-0.000000
0.671000	-17.342700	675.183228	57.384412	-0.155281	0.000000	-0.186254	0.063579	-2.475229	-0.210372	0.000000	0.000000	-0.000000	-0.200000	0.000000	0.302000	0.000000	0.000000	-0.000000
0.672000	-16.630014	677.632690	58.799920	-0.155022	0.000000	-0.185929	0.057466	-2.341605	-0.203187	0.000000	0.000000	-0.000000	-0.200000	0.000000	0.302000	0.000000	0.000000	-0.000000
0.673000	-17.431787	675.183228	59.773080	-0.155902	0.000000	-0.185909	0.066993	-2.594836	-0.229717	0.000000	0.000000	-0.000000	-0.200000	0.000000	0.302000	0.000000	0.000000	-0.000000
0.674000	-16.897272	673.783569	60.746240	-0.155392	0.000000	-0.184727	0.060971	-2.431217	-0.219191	0.000000	0.000000	-0.000000	-0.200000	0.000000	0.302000	0.000000	0.000000	-0.000000
0.675000	-15.917328	669.584473	62.161748	-0.155008	0.000000	-0.184698	0.055292	-2.325950	-0.215933	0.000000	0.000000	-0.000000	-0.200000	0.000000	0.302000	0.000000	0.000000	-0.000000
0.676000	-15.293727	673.433655	64.108076	-0.155620	0.000000	-0.184676	0.055471	-2.442589	-0.232524	0.000000	0.000000	-0.000000	-0.200000	0.000000	0.302000	0.000000	0.000000	-0.000000
0.677000	-15.293727	677.982605	62.515626	-0.155625	0.000000	-0.185442	0.060757	-2.693385	-0.248352	0.000000	0.000000	-0.000000	-0.200000	0.000000	0.302000	0.000000	0.000000	-0.000000
0.678000	-16.006414	675.883118	62.604097	-0.155240	0.000000	-0.185631	0.059490	-2.512031	-0.232678	0.000000	0.000000	-0.000000	-0.200000	0.000000	0.302000	0.000000	0.000000	-0.000000
0.679000	-16.630015	672.383850	63.488786	-0.155333	0.000000	-0.184897	0.061078	-2.469482	-0.233177	0.000000	0.000000	-0.000000	-0.200000	0.000000	0.302000	0.000000	0.000000	-0.000000
0.680000	-16.719101	675.533203	64.815824	-0.155774	0.000000	-0.185017	0.066628	-2.692091	-0.258300	0.000000	0.000000	-0.000000	-0.200000	0.000000	0.302000	0.000000	0.000000	-0.000000
0.681000	-16.184586	673.083740	63.842664	-0.156847	0.000000	-0.184406	0.058773	-2.444265	-0.231841	0.000000	0.000000	-0.000000	-0.200000	0.000000	0.302000	0.000000	0.000000	-0.000000
0.682000	-16.897273	672.033936	65.877454	-0.156239	0.000000	-0.182177	0.058980	-2.345747	-0.229946	0.000000	0.000000	-0.000000	-0.200000	0.000000	0.302000	0.000000	0.000000	-0.000000
0.683000	-15.739157	683.581421	66.585210	-0.156663	0.000000	-0.185304	0.062092	-2.696788	-0.262684	0.000000	0.000000	-0.000000	-0.200000	0.000000	0.302000	0.000000	0.000000	-0.000000
0.684000	-16.630015	678.332581	65.258169	-0.156776	0.000000	-0.184481	0.063949	-2.608457	-0.250943	0.000000	0.000000	-0.000000	-0.200000	0.000000	0.302000	0.000000	0.000000	-0.000000
0.685000	-16.897273	678.682495	66.939084	-0.156587	0.000000	-0.184408	0.062486	-2.509772	-0.247541	0.000000	0.000000	-0.000000	-0.200000	0.000000	0.302000	0.000000	0.000000	-0.000000
0.686000	-17.253615	677.632690	66.496740	-0.156176	0.000000	-0.184235	0.058291	-2.289364	-0.224657	0.000000	0.000000	-0.000000	-0.200000	0.000000	0.302000	0.000000	0.000000	-0.000000
0.687000	-17.075444	673.783569	67.823781	-0.156138	0.000000	-0.184515	0.066590	-2.627587	-0.264496	0.000000	0.000000	-0.000000	-0.200000	0.000000	0.302000	0.000000	0.000000	-0.000000
0.688000	-16.719102	668.184814	69.062352	-0.155763	0.000000	-0.184648	0.065292	-2.609400	-0.269703	0.000000	0.000000	-0.000000	-0.200000	0.000000	0.302000	0.000000	0.000000	-0.000000
0.689000	-16.540929	663.985718	71.362546	-0.155807	0.000000	-0.182469	0.063557	-2.551319	-0.274206	0.000000	0.000000	-0.000000	-0.200000	0.000000	0.302000	0.000000	0.000000	-0.000000
0.690000	-15.560986	670.284363	71.539487	-0.156468	0.000000	-0.183095	0.063481	-2.734407	-0.291843	0.000000	0.000000	-0.000000	-0.200000	0.000000	0.302000	0.000000	0.000000	-0.000000
0.691000	-17.431789	674.483398	71.539487	-0.156179	0.000000	-0.183752	0.065261	-2.525130	-0.267829	0.000000	0.000000	-0.000000	-0.200000	0.000000	0.302000	0.000000	0.000000	-0.000000
0.692000	-16.719102	671.684021	71.804899	-0.156193	0.000000	-0.183813	0.065608	-2.635761	-0.281770	0.000000	0.000000	-0.000000	-0.200000	0.000000	0.302000	0.000000	0.000000	-0.000000
0.693000	-17.164531	665.735352	72.424176	-0.156242	0.000000	-0.181947	0.066633	-2.584392	-0.281151	0.000000	0.000000	-0.000000	-0.200000	0.000000	0.302000	0.000000	0.000000	-0.000000
0.694000	-17.520874	673.083740	74.105092	-0.156644	0.000000	-0.184279	0.052491	-2.016488	-0.222011	0.000000	0.000000	-0.000000	-0.200000	0.000000	0.302000	0.000000	0.000000	-0.000000
0.695000	-16.719103	666.785095	73.485807	-0.157646	0.000000	-0.182760	0.060860	-2.427184	-0.267498	0.000000	0.000000	-0.000000	-0.200000	0.000000	0.302000	0.000000	0.000000	-0.000000
0.696000	-18.768076	664.685547	75.078259	-0.157043	0.000000	-0.181697	0.062750	-2.222324	-0.251018	0.000000	0.000000	-0.000000	-0.200000	0.000000	0.302000	0.000000	0.000000	-0.000000
0.697000	-16.630016	665.735352	75.343664	-0.157380	0.000000	-0.182019	0.064182	-2.569356	-0.290783	0.000000	0.000000	-0.000000	-0.200000	0.000000	0.302000	0.000000	0.000000	-0.000000
0.698000	-17.520874	666.785095	75.697538	-0.157025	0.000000	-0.182479	0.064842	-2.467683	-0.280147	0.000000	0.000000	-0.000000	-0.200000	0.000000	0.302000	0.000000	0.000000	-0.000000
0.699000	-17.609961	666.785095	76.228353	-0.156774	0.000000	-0.182128	0.069545	-2.633257	-0.301040	0.000000	0.000000	-0.000000	-0.200000	0.000000	0.302000	0.000000	0.000000	-0.000000
0.700000	-17.164532	663.285889	77.024579	-0.156029	0.000000	-0.182254	0.078300	-3.025747	-0.351367	0.000000	0.000000	-0.000000	-0.200000	0.000000	0.302000	0.000000	0.000000	-0.000000
